<?xml version="1.0" encoding="utf-8"?>
<!-- Generator: Adobe Illustrator 28.0.0, SVG Export Plug-In . SVG Version: 6.00 Build 0)  -->
<svg version="1.1" xmlns="http://www.w3.org/2000/svg" xmlns:xlink="http://www.w3.org/1999/xlink" x="0px" y="0px"
	 viewBox="0 0 41 44" style="enable-background:new 0 0 41 44;" xml:space="preserve">
<style type="text/css">
	.st0{fill:#5B5E80;}
	.st1{fill:#FFFFFF;}
</style>
<g id="Layer_1">
	<path class="st0" d="M41,29.6c0,2-1.4,4.5-3.2,5.5l-13.9,8c-1.8,1-4.7,1-6.5,0.1L3.3,35.4c-1.8-1-3.3-3.4-3.3-5.4L0,14.1
		c0-2,1.4-4.5,3.2-5.5l13.9-8c1.8-1,4.7-1,6.5-0.1l14.1,7.8c1.8,1,3.3,3.4,3.3,5.4L41,29.6L41,29.6z"/>
</g>
<g id="Layer_6">
	<rect x="12.5" y="12" class="st1" width="16.4" height="3.5"/>
</g>
<g id="Layer_3">
</g>
<g id="Layer_4">
	<rect x="7.4" y="17" class="st1" width="26.2" height="5.2"/>
</g>
<g id="Layer_5">
	<rect x="3.3" y="23.9" class="st1" width="34.3" height="8.3"/>
</g>
</svg>
